<svg width="41" height="41" viewBox="0 0 41 41" fill="none" xmlns="http://www.w3.org/2000/svg">
<path d="M40.6211 20.623C40.6211 9.44247 31.568 0.378906 20.4004 0.378906C9.2328 0.378906 0.179688 9.44247 0.179688 20.623C0.179688 30.7274 7.5741 39.1024 17.2409 40.6211V26.4748H12.1068V20.623H17.2409V16.163C17.2409 11.0893 20.2597 8.28675 24.8786 8.28675C27.0909 8.28675 29.4049 8.68213 29.4049 8.68213V13.6641H26.8551C24.3432 13.6641 23.5599 15.2246 23.5599 16.8255V20.623H29.168L28.2715 26.4748H23.5599V40.6211C33.2267 39.1024 40.6211 30.7274 40.6211 20.623Z" fill="#1877F2"/>
<path d="M28.143 26.3644L29.0309 20.5677H23.4764V16.806C23.4764 15.2201 24.2523 13.6743 26.7402 13.6743H29.2656V8.73931C29.2656 8.73931 26.9737 8.34766 24.7825 8.34766C20.2078 8.34766 17.2179 11.1238 17.2179 16.1497V20.5677H12.1328V26.3644H17.2179V40.3775C18.2531 40.5399 19.2993 40.6214 20.3472 40.6211C21.4118 40.6211 22.4568 40.5377 23.4764 40.3775V26.3644H28.143Z" fill="white"/>
</svg>
