<svg width="130" height="40" viewBox="0 0 130 40" fill="none" xmlns="http://www.w3.org/2000/svg">
<rect width="130" height="40" fill="white"/>
<path d="M17.7048 9.99104C20.239 9.99104 22.209 10.5182 23.6149 11.5726C25.0207 12.627 25.7236 14.19 25.7236 16.2618C25.7236 18.426 25.03 20.0631 23.6426 21.173C22.2738 22.2643 20.4333 22.81 18.121 22.81H16.04V29.2195H11.4896V9.99104H17.7048ZM17.7326 19.5359C18.8054 19.5359 19.6193 19.2862 20.1743 18.7867C20.7477 18.2688 21.0344 17.4272 21.0344 16.2618C21.0344 14.2455 19.9061 13.2374 17.6493 13.2374H16.04V19.5359H17.7326Z" fill="#001738"/>
<path d="M36.1308 14.0143C37.4072 14.0143 38.406 14.4028 39.1275 15.1797C39.8489 15.9566 40.2096 17.0479 40.2096 18.4538V29.2195H35.8256V19.2029C35.8256 18.463 35.7054 17.9543 35.4649 17.6769C35.2244 17.3809 34.8822 17.2329 34.4383 17.2329C33.5504 17.2329 32.6995 17.8619 31.8856 19.1197V29.2195H27.5016V8.63145L31.8856 8.1875V16.0676C32.496 15.3831 33.1434 14.8745 33.8278 14.5415C34.5122 14.19 35.2799 14.0143 36.1308 14.0143Z" fill="#001738"/>
<path d="M51.4828 29.2473C50.8908 31.1525 49.9197 32.6139 48.5693 33.6312C47.2375 34.6671 45.4432 35.2498 43.1865 35.3793L42.7148 32.2994C44.1206 32.1144 45.1565 31.7999 45.8224 31.356C46.5068 30.9121 47.0525 30.1999 47.4595 29.2195H45.9612L41.4662 14.486H46.1276L48.7636 26.4171L51.6492 14.486H56.1719L51.4828 29.2473Z" fill="#001738"/>
<path d="M80.4349 14.0143C82.6917 14.0143 84.4582 14.708 85.7345 16.0953C87.0109 17.4641 87.6491 19.3879 87.6491 21.8666C87.6491 23.4389 87.3531 24.817 86.7612 26.0009C86.1877 27.1662 85.3553 28.0726 84.264 28.7201C83.1911 29.3675 81.9147 29.6912 80.4349 29.6912C78.1967 29.6912 76.4301 29.0068 75.1353 27.6379C73.859 26.2506 73.2208 24.3176 73.2208 21.8389C73.2208 20.2666 73.5075 18.8977 74.0809 17.7324C74.6729 16.5485 75.5053 15.6329 76.5781 14.9854C77.6695 14.338 78.9551 14.0143 80.4349 14.0143ZM80.4349 17.2329C79.547 17.2329 78.8811 17.6121 78.4372 18.3705C77.9932 19.1105 77.7712 20.2666 77.7712 21.8389C77.7712 23.4482 77.984 24.6228 78.4094 25.3627C78.8534 26.1026 79.5285 26.4726 80.4349 26.4726C81.3228 26.4726 81.9887 26.1026 82.4327 25.3627C82.8766 24.6043 83.0986 23.4389 83.0986 21.8666C83.0986 20.2573 82.8766 19.0827 82.4327 18.3428C82.0072 17.6029 81.3413 17.2329 80.4349 17.2329Z" fill="#001738"/>
<path d="M58.2408 8.43769L62.8653 7.80273V29.7689H58.2408V8.43769Z" fill="#001738"/>
<path d="M65.9492 8.43769L70.5736 7.80273V29.7689H65.9492V8.43769Z" fill="#001738"/>
<path d="M91.2539 10.716C90.8318 9.12072 125.175 10.6894 125.175 10.6894L109.124 31.7339C109.124 31.7339 102.101 23.9021 99.7891 21.1826C97.4769 18.4631 91.6759 12.3112 91.2539 10.716Z" fill="#286BFB"/>
<path d="M91.6674 15.7336C91.0913 14.3031 124.972 10.918 124.972 10.918L108.707 31.618C108.707 31.618 101.37 25.1957 99.9713 23.7233C98.5727 22.251 92.2435 17.1642 91.6674 15.7336Z" fill="#8338EC"/>
<path d="M93.2212 20.7893C92.3223 19.7246 125.179 10.6895 125.179 10.6895L109.128 31.734C109.128 31.734 102.557 27.8962 100.949 26.5777C99.3411 25.2593 94.1201 21.854 93.2212 20.7893Z" fill="#FF7D50"/>
<path d="M95.8341 26.5608C95.0846 25.3801 125.172 10.6895 125.172 10.6895L109.121 31.734C109.121 31.734 105.108 30.6716 102.682 29.6683C99.9025 28.5188 96.5836 27.7416 95.8341 26.5608Z" fill="#F9B90B"/>
</svg>
